<svg viewBox="0 0 400 400" xmlns="http://www.w3.org/2000/svg">
  <!-- Background Circle -->
  <circle cx="200" cy="200" r="190" fill="#4a5568"/>

  <!-- Snail Shell -->
  <path d="M280 200 C280 120 240 80 180 80 C120 80 100 140 100 200 C100 260 140 300 200 300 C260 300 280 260 280 200"
        fill="#48bb78" stroke="#2f855a" stroke-width="8"/>

  <!-- Shell Spiral -->
  <path d="M240 200 C240 160 220 140 180 140 C140 140 140 180 140 200 C140 240 180 260 200 260"
        fill="none" stroke="#2f855a" stroke-width="8"/>

  <!-- Snail Body -->
  <path d="M100 200 L60 200 C40 200 40 240 60 240 L100 240"
        fill="#48bb78" stroke="#2f855a" stroke-width="8"/>

  <!-- Eyes on stalks -->
  <line x1="60" y1="200" x2="40" y2="160" stroke="#2f855a" stroke-width="8"/>
  <line x1="80" y1="200" x2="60" y2="160" stroke="#2f855a" stroke-width="8"/>
  <circle cx="40" cy="160" r="6" fill="#2f855a"/>
  <circle cx="60" cy="160" r="6" fill="#2f855a"/>

  <!-- Resource Counter -->
  <circle cx="300" cy="100" r="40" fill="#e53e3e"/>
  <text x="300" y="115" font-family="Arial" font-size="40" fill="white" text-anchor="middle">+</text>
</svg>
